<?xml version="1.0" encoding="UTF-8" standalone="no"?><!DOCTYPE svg PUBLIC "-//W3C//DTD SVG 1.1//EN" "http://www.w3.org/Graphics/SVG/1.1/DTD/svg11.dtd"><!-- Generated by graphviz version 2.40.1 (20161225.0304)
 --><!-- Title: %0 Pages: 1 --><svg xmlns="http://www.w3.org/2000/svg" xmlns:xlink="http://www.w3.org/1999/xlink" width="629pt" height="925pt" viewBox="0.00 0.00 629.36 925.00">
<g id="graph0" class="graph" transform="scale(1 1) rotate(0) translate(4 921)">
<title>%0</title>
<polygon fill="#ffffff" stroke="transparent" points="-4,4 -4,-921 625.3581,-921 625.3581,4 -4,4"/>
<g id="clust1" class="cluster">
<title>clusterDB</title>
<polygon fill="none" stroke="#7f7f7f" points="8,-8 8,-813 613.3581,-813 613.3581,-8 8,-8"/>
<text text-anchor="start" x="222.0604" y="-797.4" font-family="Times,serif" font-size="14.00" fill="#7f7f7f">DatabaseCatalog (</text>
<text text-anchor="start" x="325.0682" y="-797.4" font-family="Times,serif" font-style="italic" font-size="14.00" fill="#7f7f7f">per database</text>
<text text-anchor="start" x="394.637" y="-797.4" font-family="Times,serif" font-size="14.00" fill="#7f7f7f">)</text>
</g>
<!-- pgDatabase -->
<g id="node1" class="node">
<title>pgDatabase</title>
<polygon fill="none" stroke="#000000" points="43.5,-891 43.5,-913 170.5,-913 170.5,-891 43.5,-891"/>
<text text-anchor="start" x="72.4032" y="-898.4" font-family="Times,serif" font-weight="bold" font-size="14.00" fill="#000000">pg_database</text>
<polygon fill="none" stroke="#000000" points="43.5,-869 43.5,-891 96.5,-891 96.5,-869 43.5,-869"/>
<text text-anchor="start" x="61.0547" y="-875.4" font-family="Times,serif" font-size="14.00" fill="#000000">oid</text>
<polygon fill="none" stroke="#000000" points="96.5,-869 96.5,-891 170.5,-891 170.5,-869 96.5,-869"/>
<text text-anchor="start" x="103.5659" y="-875.4" font-family="Times,serif" font-size="14.00" fill="#000000">INTEGER</text>
<polygon fill="none" stroke="#000000" points="43.5,-847 43.5,-869 96.5,-869 96.5,-847 43.5,-847"/>
<text text-anchor="start" x="46.2875" y="-853.4" font-family="Times,serif" font-size="14.00" fill="#000000">datname</text>
<polygon fill="none" stroke="#000000" points="96.5,-847 96.5,-869 170.5,-869 170.5,-847 96.5,-847"/>
<text text-anchor="start" x="99.2819" y="-853.4" font-family="Times,serif" font-size="14.00" fill="#000000">VARCHAR</text>
<polygon fill="none" stroke="#000000" points="43.5,-825 43.5,-847 96.5,-847 96.5,-825 43.5,-825"/>
<text text-anchor="start" x="46.2875" y="-832.4" font-family="Times,serif" font-style="italic" font-size="14.00" fill="#000000">catalog_</text>
<polygon fill="none" stroke="#000000" points="96.5,-825 96.5,-847 170.5,-847 170.5,-825 96.5,-825"/>
<text text-anchor="start" x="103.9509" y="-831.4" font-family="Times,serif" font-size="14.00" fill="#000000">POINTER</text>
</g>
<!-- pgType -->
<g id="node6" class="node">
<title>pgType</title>
<polygon fill="none" stroke="#000000" points="241.5,-688 241.5,-710 402.5,-710 402.5,-688 241.5,-688"/>
<text text-anchor="start" x="299.4474" y="-695.4" font-family="Times,serif" font-weight="bold" font-size="14.00" fill="#000000">pg_type</text>
<polygon fill="none" stroke="#000000" points="241.5,-666 241.5,-688 326.5,-688 326.5,-666 241.5,-666"/>
<text text-anchor="start" x="275.0547" y="-672.4" font-family="Times,serif" font-size="14.00" fill="#000000">oid</text>
<polygon fill="none" stroke="#000000" points="326.5,-666 326.5,-688 402.5,-688 402.5,-666 326.5,-666"/>
<text text-anchor="start" x="334.5659" y="-672.4" font-family="Times,serif" font-size="14.00" fill="#000000">INTEGER</text>
<polygon fill="none" stroke="#000000" points="241.5,-644 241.5,-666 326.5,-666 326.5,-644 241.5,-644"/>
<text text-anchor="start" x="259.8948" y="-650.4" font-family="Times,serif" font-size="14.00" fill="#000000">typname</text>
<polygon fill="none" stroke="#000000" points="326.5,-644 326.5,-666 402.5,-666 402.5,-644 326.5,-644"/>
<text text-anchor="start" x="330.2819" y="-650.4" font-family="Times,serif" font-size="14.00" fill="#000000">VARCHAR</text>
<polygon fill="none" stroke="#000000" points="241.5,-622 241.5,-644 326.5,-644 326.5,-622 241.5,-622"/>
<text text-anchor="start" x="244.3506" y="-628.4" font-family="Times,serif" font-size="14.00" fill="#000000">typnamespace</text>
<polygon fill="none" stroke="#000000" points="326.5,-622 326.5,-644 402.5,-644 402.5,-622 326.5,-622"/>
<text text-anchor="start" x="334.5659" y="-628.4" font-family="Times,serif" font-size="14.00" fill="#000000">INTEGER</text>
<polygon fill="none" stroke="#000000" points="241.5,-600 241.5,-622 326.5,-622 326.5,-600 241.5,-600"/>
<text text-anchor="start" x="266.5021" y="-606.4" font-family="Times,serif" font-size="14.00" fill="#000000">typlen</text>
<polygon fill="none" stroke="#000000" points="326.5,-600 326.5,-622 402.5,-622 402.5,-600 326.5,-600"/>
<text text-anchor="start" x="329.1206" y="-606.4" font-family="Times,serif" font-size="14.00" fill="#000000">SMALLINT</text>
<polygon fill="none" stroke="#000000" points="241.5,-578 241.5,-600 326.5,-600 326.5,-578 241.5,-578"/>
<text text-anchor="start" x="259.5021" y="-584.4" font-family="Times,serif" font-size="14.00" fill="#000000">typbyval</text>
<polygon fill="none" stroke="#000000" points="326.5,-578 326.5,-600 402.5,-600 402.5,-578 326.5,-578"/>
<text text-anchor="start" x="331.0659" y="-584.4" font-family="Times,serif" font-size="14.00" fill="#000000">BOOLEAN</text>
<polygon fill="none" stroke="#000000" points="241.5,-556 241.5,-578 326.5,-578 326.5,-556 241.5,-556"/>
<text text-anchor="start" x="263.0021" y="-562.4" font-family="Times,serif" font-size="14.00" fill="#000000">typtype</text>
<polygon fill="none" stroke="#000000" points="326.5,-556 326.5,-578 402.5,-578 402.5,-556 326.5,-556"/>
<text text-anchor="start" x="345.0568" y="-562.4" font-family="Times,serif" font-size="14.00" fill="#000000">CHAR</text>
</g>
<!-- pgDatabase&#45;&gt;pgType -->
<g id="edge11" class="edge">
<title>pgDatabase:datcatalog-&gt;pgType</title>
<path fill="none" stroke="#7f7f7f" d="M170.5,-836C190.3793,-836 207.9491,-829.6552 223.4048,-819.2091"/>
<polygon fill="#7f7f7f" stroke="#7f7f7f" points="225.8301,-821.7678 231.775,-812.998 221.6587,-816.1464 225.8301,-821.7678"/>
</g>
<!-- pgClass -->
<g id="node2" class="node">
<title>pgClass</title>
<polygon fill="none" stroke="#000000" points="243.5,-354 243.5,-376 399.5,-376 399.5,-354 243.5,-354"/>
<text text-anchor="start" x="297.3955" y="-361.4" font-family="Times,serif" font-weight="bold" font-size="14.00" fill="#000000">pg_class</text>
<polygon fill="none" stroke="#000000" points="243.5,-332 243.5,-354 325.5,-354 325.5,-332 243.5,-332"/>
<text text-anchor="start" x="275.5547" y="-338.4" font-family="Times,serif" font-size="14.00" fill="#000000">oid</text>
<polygon fill="none" stroke="#000000" points="325.5,-332 325.5,-354 399.5,-354 399.5,-332 325.5,-332"/>
<text text-anchor="start" x="332.5659" y="-338.4" font-family="Times,serif" font-size="14.00" fill="#000000">INTEGER</text>
<polygon fill="none" stroke="#000000" points="243.5,-310 243.5,-332 325.5,-332 325.5,-310 243.5,-310"/>
<text text-anchor="start" x="261.9572" y="-316.4" font-family="Times,serif" font-size="14.00" fill="#000000">relname</text>
<polygon fill="none" stroke="#000000" points="325.5,-310 325.5,-332 399.5,-332 399.5,-310 325.5,-310"/>
<text text-anchor="start" x="328.2819" y="-316.4" font-family="Times,serif" font-size="14.00" fill="#000000">VARCHAR</text>
<polygon fill="none" stroke="#000000" points="243.5,-288 243.5,-310 325.5,-310 325.5,-288 243.5,-288"/>
<text text-anchor="start" x="246.413" y="-294.4" font-family="Times,serif" font-size="14.00" fill="#000000">relnamespace</text>
<polygon fill="none" stroke="#000000" points="325.5,-288 325.5,-310 399.5,-310 399.5,-288 325.5,-288"/>
<text text-anchor="start" x="332.5659" y="-294.4" font-family="Times,serif" font-size="14.00" fill="#000000">INTEGER</text>
<polygon fill="none" stroke="#000000" points="243.5,-266 243.5,-288 325.5,-288 325.5,-266 243.5,-266"/>
<text text-anchor="start" x="264.6718" y="-272.4" font-family="Times,serif" font-size="14.00" fill="#000000">relkind</text>
<polygon fill="none" stroke="#000000" points="325.5,-266 325.5,-288 399.5,-288 399.5,-266 325.5,-266"/>
<text text-anchor="start" x="343.0568" y="-272.4" font-family="Times,serif" font-size="14.00" fill="#000000">CHAR</text>
<polygon fill="none" stroke="#000000" points="243.5,-244 243.5,-266 325.5,-266 325.5,-244 243.5,-244"/>
<text text-anchor="start" x="260.0105" y="-251.4" font-family="Times,serif" font-style="italic" font-size="14.00" fill="#000000">schema_</text>
<polygon fill="none" stroke="#000000" points="325.5,-244 325.5,-266 399.5,-266 399.5,-244 325.5,-244"/>
<text text-anchor="start" x="332.9509" y="-250.4" font-family="Times,serif" font-size="14.00" fill="#000000">POINTER</text>
<polygon fill="none" stroke="#000000" points="243.5,-222 243.5,-244 325.5,-244 325.5,-222 243.5,-222"/>
<text text-anchor="start" x="273.2244" y="-229.4" font-family="Times,serif" font-style="italic" font-size="14.00" fill="#000000">ptr_</text>
<polygon fill="none" stroke="#000000" points="325.5,-222 325.5,-244 399.5,-244 399.5,-222 325.5,-222"/>
<text text-anchor="start" x="332.9509" y="-228.4" font-family="Times,serif" font-size="14.00" fill="#000000">POINTER</text>
</g>
<!-- pgNamespace -->
<g id="node3" class="node">
<title>pgNamespace</title>
<polygon fill="none" stroke="#000000" points="461.679,-486 461.679,-508 590.679,-508 590.679,-486 461.679,-486"/>
<text text-anchor="start" x="484.9749" y="-493.4" font-family="Times,serif" font-weight="bold" font-size="14.00" fill="#000000">pg_namespace</text>
<polygon fill="none" stroke="#000000" points="461.679,-464 461.679,-486 516.679,-486 516.679,-464 461.679,-464"/>
<text text-anchor="start" x="480.2337" y="-470.4" font-family="Times,serif" font-size="14.00" fill="#000000">oid</text>
<polygon fill="none" stroke="#000000" points="516.679,-464 516.679,-486 590.679,-486 590.679,-464 516.679,-464"/>
<text text-anchor="start" x="523.7449" y="-470.4" font-family="Times,serif" font-size="14.00" fill="#000000">INTEGER</text>
<polygon fill="none" stroke="#000000" points="461.679,-442 461.679,-464 516.679,-464 516.679,-442 461.679,-442"/>
<text text-anchor="start" x="464.2968" y="-448.4" font-family="Times,serif" font-size="14.00" fill="#000000">nspname</text>
<polygon fill="none" stroke="#000000" points="516.679,-442 516.679,-464 590.679,-464 590.679,-442 516.679,-442"/>
<text text-anchor="start" x="519.4609" y="-448.4" font-family="Times,serif" font-size="14.00" fill="#000000">VARCHAR</text>
</g>
<!-- pgClass&#45;&gt;pgNamespace -->
<g id="edge7" class="edge">
<title>pgClass:relnamespace-&gt;pgNamespace:nspoid</title>
<path fill="none" stroke="#000000" d="M399.5,-299C478.7336,-299 387.6625,-459.5427 451.5953,-473.9664"/>
<polygon fill="#000000" stroke="#000000" points="451.3742,-477.462 461.679,-475 452.0881,-470.4985 451.3742,-477.462"/>
</g>
<!-- SqlTable -->
<g id="node9" class="node">
<title>SqlTable</title>
<ellipse fill="none" stroke="#7f7f7f" cx="525.679" cy="-163" rx="45.8041" ry="18"/>
<text text-anchor="middle" x="525.679" y="-158.8" font-family="Times,serif" font-size="14.00" fill="#7f7f7f">SqlTable</text>
</g>
<!-- pgClass&#45;&gt;SqlTable -->
<g id="edge16" class="edge">
<title>pgClass:pointer-&gt;SqlTable</title>
<path fill="none" stroke="#7f7f7f" d="M399.5,-233C427.6486,-233 421.8064,-204.388 446,-190 455.5152,-184.3413 466.3809,-179.6665 476.9632,-175.8891"/>
<polygon fill="#7f7f7f" stroke="#7f7f7f" points="478.1884,-179.1698 486.5551,-172.6698 475.9611,-172.5336 478.1884,-179.1698"/>
</g>
<!-- Index -->
<g id="node10" class="node">
<title>Index</title>
<ellipse fill="none" stroke="#7f7f7f" cx="525.679" cy="-217" rx="33.0469" ry="18"/>
<text text-anchor="middle" x="525.679" y="-212.8" font-family="Times,serif" font-size="14.00" fill="#7f7f7f">Index</text>
</g>
<!-- pgClass&#45;&gt;Index -->
<g id="edge17" class="edge">
<title>pgClass:pointer-&gt;Index</title>
<path fill="none" stroke="#7f7f7f" d="M399.5,-233C427.9989,-233 459.833,-228.9333 484.3959,-224.9004"/>
<polygon fill="#7f7f7f" stroke="#7f7f7f" points="485.1776,-228.3177 494.4467,-223.186 484.0006,-221.4173 485.1776,-228.3177"/>
</g>
<!-- Schema -->
<g id="node11" class="node">
<title>Schema</title>
<ellipse fill="none" stroke="#7f7f7f" cx="525.679" cy="-271" rx="41.7114" ry="18"/>
<text text-anchor="middle" x="525.679" y="-266.8" font-family="Times,serif" font-size="14.00" fill="#7f7f7f">Schema</text>
</g>
<!-- pgClass&#45;&gt;Schema -->
<g id="edge14" class="edge">
<title>pgClass:schema-&gt;Schema</title>
<path fill="none" stroke="#7f7f7f" d="M399.5,-255C425.3711,-255 453.9907,-258.3513 477.4242,-261.9864"/>
<polygon fill="#7f7f7f" stroke="#7f7f7f" points="477.0305,-265.4681 487.4609,-263.6089 478.1476,-258.5578 477.0305,-265.4681"/>
</g>
<!-- IndexKeySchema -->
<g id="node12" class="node">
<title>IndexKeySchema</title>
<ellipse fill="none" stroke="#7f7f7f" cx="525.679" cy="-325" rx="79.8585" ry="18"/>
<text text-anchor="middle" x="525.679" y="-320.8" font-family="Times,serif" font-size="14.00" fill="#7f7f7f">IndexKeySchema</text>
</g>
<!-- pgClass&#45;&gt;IndexKeySchema -->
<g id="edge15" class="edge">
<title>pgClass:schema-&gt;IndexKeySchema</title>
<path fill="none" stroke="#7f7f7f" d="M399.5,-255C427.6486,-255 421.8064,-283.612 446,-298 451.8198,-301.461 458.1447,-304.554 464.601,-307.2986"/>
<polygon fill="#7f7f7f" stroke="#7f7f7f" points="463.5249,-310.6371 474.1107,-311.073 466.1072,-304.1308 463.5249,-310.6371"/>
</g>
<!-- pgIndex -->
<g id="node4" class="node">
<title>pgIndex</title>
<polygon fill="none" stroke="#000000" points="24.5,-218 24.5,-240 189.5,-240 189.5,-218 24.5,-218"/>
<text text-anchor="start" x="80.9474" y="-225.4" font-family="Times,serif" font-weight="bold" font-size="14.00" fill="#000000">pg_index</text>
<polygon fill="none" stroke="#000000" points="24.5,-196 24.5,-218 117.5,-218 117.5,-196 24.5,-196"/>
<text text-anchor="start" x="27.2633" y="-203.4" font-family="Times,serif" font-size="14.00" fill="#000000">indexrelid (</text>
<text text-anchor="start" x="92.1855" y="-203.4" font-family="Times,serif" font-style="italic" font-size="14.00" fill="#000000">oid</text>
<text text-anchor="start" x="110.0761" y="-203.4" font-family="Times,serif" font-size="14.00" fill="#000000">)</text>
<polygon fill="none" stroke="#000000" points="117.5,-196 117.5,-218 189.5,-218 189.5,-196 117.5,-196"/>
<text text-anchor="start" x="123.5659" y="-202.4" font-family="Times,serif" font-size="14.00" fill="#000000">INTEGER</text>
<polygon fill="none" stroke="#000000" points="24.5,-174 24.5,-196 117.5,-196 117.5,-174 24.5,-174"/>
<text text-anchor="start" x="49.2265" y="-180.4" font-family="Times,serif" font-size="14.00" fill="#000000">indrelid</text>
<polygon fill="none" stroke="#000000" points="117.5,-174 117.5,-196 189.5,-196 189.5,-174 117.5,-174"/>
<text text-anchor="start" x="123.5659" y="-180.4" font-family="Times,serif" font-size="14.00" fill="#000000">INTEGER</text>
<polygon fill="none" stroke="#000000" points="24.5,-152 24.5,-174 117.5,-174 117.5,-152 24.5,-152"/>
<text text-anchor="start" x="38.3345" y="-158.4" font-family="Times,serif" font-size="14.00" fill="#000000">indisunique</text>
<polygon fill="none" stroke="#000000" points="117.5,-152 117.5,-174 189.5,-174 189.5,-152 117.5,-152"/>
<text text-anchor="start" x="120.0659" y="-158.4" font-family="Times,serif" font-size="14.00" fill="#000000">BOOLEAN</text>
<polygon fill="none" stroke="#000000" points="24.5,-130 24.5,-152 117.5,-152 117.5,-130 24.5,-130"/>
<text text-anchor="start" x="35.2286" y="-136.4" font-family="Times,serif" font-size="14.00" fill="#000000">indisprimary</text>
<polygon fill="none" stroke="#000000" points="117.5,-130 117.5,-152 189.5,-152 189.5,-130 117.5,-130"/>
<text text-anchor="start" x="120.0659" y="-136.4" font-family="Times,serif" font-size="14.00" fill="#000000">BOOLEAN</text>
<polygon fill="none" stroke="#000000" points="24.5,-108 24.5,-130 117.5,-130 117.5,-108 24.5,-108"/>
<text text-anchor="start" x="30.5596" y="-114.4" font-family="Times,serif" font-size="14.00" fill="#000000">indisexclusion</text>
<polygon fill="none" stroke="#000000" points="117.5,-108 117.5,-130 189.5,-130 189.5,-108 117.5,-108"/>
<text text-anchor="start" x="120.0659" y="-114.4" font-family="Times,serif" font-size="14.00" fill="#000000">BOOLEAN</text>
<polygon fill="none" stroke="#000000" points="24.5,-86 24.5,-108 117.5,-108 117.5,-86 24.5,-86"/>
<text text-anchor="start" x="32.5063" y="-92.4" font-family="Times,serif" font-size="14.00" fill="#000000">indimmediate</text>
<polygon fill="none" stroke="#000000" points="117.5,-86 117.5,-108 189.5,-108 189.5,-86 117.5,-86"/>
<text text-anchor="start" x="120.0659" y="-92.4" font-family="Times,serif" font-size="14.00" fill="#000000">BOOLEAN</text>
<polygon fill="none" stroke="#000000" points="24.5,-64 24.5,-86 117.5,-86 117.5,-64 24.5,-64"/>
<text text-anchor="start" x="43.3892" y="-70.4" font-family="Times,serif" font-size="14.00" fill="#000000">indisvalid</text>
<polygon fill="none" stroke="#000000" points="117.5,-64 117.5,-86 189.5,-86 189.5,-64 117.5,-64"/>
<text text-anchor="start" x="120.0659" y="-70.4" font-family="Times,serif" font-size="14.00" fill="#000000">BOOLEAN</text>
<polygon fill="none" stroke="#000000" points="24.5,-42 24.5,-64 117.5,-64 117.5,-42 24.5,-42"/>
<text text-anchor="start" x="41.8422" y="-48.4" font-family="Times,serif" font-size="14.00" fill="#000000">indisready</text>
<polygon fill="none" stroke="#000000" points="117.5,-42 117.5,-64 189.5,-64 189.5,-42 117.5,-42"/>
<text text-anchor="start" x="120.0659" y="-48.4" font-family="Times,serif" font-size="14.00" fill="#000000">BOOLEAN</text>
<polygon fill="none" stroke="#000000" points="24.5,-20 24.5,-42 117.5,-42 117.5,-20 24.5,-20"/>
<text text-anchor="start" x="46.8892" y="-26.4" font-family="Times,serif" font-size="14.00" fill="#000000">indislive</text>
<polygon fill="none" stroke="#000000" points="117.5,-20 117.5,-42 189.5,-42 189.5,-20 117.5,-20"/>
<text text-anchor="start" x="120.0659" y="-26.4" font-family="Times,serif" font-size="14.00" fill="#000000">BOOLEAN</text>
</g>
<!-- pgIndex&#45;&gt;pgClass -->
<g id="edge9" class="edge">
<title>pgIndex:indtable-&gt;pgClass:reloid</title>
<path fill="none" stroke="#000000" d="M189.5,-185C259.9418,-185 178.4445,-327.3606 233.4549,-341.8191"/>
<polygon fill="#000000" stroke="#000000" points="233.1597,-345.3084 243.5,-343 233.9771,-338.3563 233.1597,-345.3084"/>
</g>
<!-- pgIndex&#45;&gt;pgClass -->
<g id="edge10" class="edge">
<title>pgIndex:indoid-&gt;pgClass:reloid</title>
<path fill="none" stroke="#000000" d="M189.5,-207C250.7242,-207 186.8951,-327.5294 233.4647,-341.654"/>
<polygon fill="#000000" stroke="#000000" points="233.1234,-345.1395 243.5,-343 234.0541,-338.2016 233.1234,-345.1395"/>
</g>
<!-- pgAttribute -->
<g id="node5" class="node">
<title>pgAttribute</title>
<polygon fill="none" stroke="#000000" points="31.5,-754 31.5,-776 182.5,-776 182.5,-754 31.5,-754"/>
<text text-anchor="start" x="73.1739" y="-761.4" font-family="Times,serif" font-weight="bold" font-size="14.00" fill="#000000">pg_attribute</text>
<polygon fill="none" stroke="#000000" points="31.5,-732 31.5,-754 106.5,-754 106.5,-732 31.5,-732"/>
<text text-anchor="start" x="34.2009" y="-739.4" font-family="Times,serif" font-size="14.00" fill="#000000">attnum (</text>
<text text-anchor="start" x="81.2479" y="-739.4" font-family="Times,serif" font-style="italic" font-size="14.00" fill="#000000">oid</text>
<text text-anchor="start" x="99.1385" y="-739.4" font-family="Times,serif" font-size="14.00" fill="#000000">)</text>
<polygon fill="none" stroke="#000000" points="106.5,-732 106.5,-754 182.5,-754 182.5,-732 106.5,-732"/>
<text text-anchor="start" x="114.5659" y="-738.4" font-family="Times,serif" font-size="14.00" fill="#000000">INTEGER</text>
<polygon fill="none" stroke="#000000" points="31.5,-710 31.5,-732 106.5,-732 106.5,-710 31.5,-710"/>
<text text-anchor="start" x="49.1739" y="-716.4" font-family="Times,serif" font-size="14.00" fill="#000000">attrelid</text>
<polygon fill="none" stroke="#000000" points="106.5,-710 106.5,-732 182.5,-732 182.5,-710 106.5,-710"/>
<text text-anchor="start" x="114.5659" y="-716.4" font-family="Times,serif" font-size="14.00" fill="#000000">INTEGER</text>
<polygon fill="none" stroke="#000000" points="31.5,-688 31.5,-710 106.5,-710 106.5,-688 31.5,-688"/>
<text text-anchor="start" x="46.8422" y="-694.4" font-family="Times,serif" font-size="14.00" fill="#000000">attname</text>
<polygon fill="none" stroke="#000000" points="106.5,-688 106.5,-710 182.5,-710 182.5,-688 106.5,-688"/>
<text text-anchor="start" x="110.2819" y="-694.4" font-family="Times,serif" font-size="14.00" fill="#000000">VARCHAR</text>
<polygon fill="none" stroke="#000000" points="31.5,-666 31.5,-688 106.5,-688 106.5,-666 31.5,-666"/>
<text text-anchor="start" x="47.6115" y="-672.4" font-family="Times,serif" font-size="14.00" fill="#000000">atttypid</text>
<polygon fill="none" stroke="#000000" points="106.5,-666 106.5,-688 182.5,-688 182.5,-666 106.5,-666"/>
<text text-anchor="start" x="114.5659" y="-672.4" font-family="Times,serif" font-size="14.00" fill="#000000">INTEGER</text>
<polygon fill="none" stroke="#000000" points="31.5,-644 31.5,-666 106.5,-666 106.5,-644 31.5,-644"/>
<text text-anchor="start" x="53.4495" y="-650.4" font-family="Times,serif" font-size="14.00" fill="#000000">attlen</text>
<polygon fill="none" stroke="#000000" points="106.5,-644 106.5,-666 182.5,-666 182.5,-644 106.5,-644"/>
<text text-anchor="start" x="109.1206" y="-650.4" font-family="Times,serif" font-size="14.00" fill="#000000">SMALLINT</text>
<polygon fill="none" stroke="#000000" points="31.5,-622 31.5,-644 106.5,-644 106.5,-622 31.5,-622"/>
<text text-anchor="start" x="42.1662" y="-628.4" font-family="Times,serif" font-size="14.00" fill="#000000">attnotnull</text>
<polygon fill="none" stroke="#000000" points="106.5,-622 106.5,-644 182.5,-644 182.5,-622 106.5,-622"/>
<text text-anchor="start" x="111.0659" y="-628.4" font-family="Times,serif" font-size="14.00" fill="#000000">BOOLEAN</text>
<polygon fill="none" stroke="#000000" points="31.5,-600 31.5,-622 106.5,-622 106.5,-600 31.5,-600"/>
<text text-anchor="start" x="53.4474" y="-606.4" font-family="Times,serif" font-size="14.00" fill="#000000">adbin</text>
<polygon fill="none" stroke="#000000" points="106.5,-600 106.5,-622 182.5,-622 182.5,-600 106.5,-600"/>
<text text-anchor="start" x="114.9509" y="-606.4" font-family="Times,serif" font-size="14.00" fill="#000000">POINTER</text>
<polygon fill="none" stroke="#000000" points="31.5,-578 31.5,-600 106.5,-600 106.5,-578 31.5,-578"/>
<text text-anchor="start" x="54.2328" y="-584.4" font-family="Times,serif" font-size="14.00" fill="#000000">adsrc</text>
<polygon fill="none" stroke="#000000" points="106.5,-578 106.5,-600 182.5,-600 182.5,-578 106.5,-578"/>
<text text-anchor="start" x="110.2819" y="-584.4" font-family="Times,serif" font-size="14.00" fill="#000000">VARCHAR</text>
</g>
<!-- pgAttribute&#45;&gt;pgClass -->
<g id="edge5" class="edge">
<title>pgAttribute:attparent-&gt;pgClass:reloid</title>
<path fill="none" stroke="#000000" d="M182.5,-721C263.9307,-721 167.4367,-374.7865 233.577,-345.0337"/>
<polygon fill="#000000" stroke="#000000" points="234.4064,-348.4366 243.5,-343 233.0009,-341.5791 234.4064,-348.4366"/>
</g>
<!-- pgAttribute&#45;&gt;pgType -->
<g id="edge6" class="edge">
<title>pgAttribute:atttype-&gt;pgType:typoid</title>
<path fill="none" stroke="#000000" d="M182.5,-677C205.0347,-677 213.0451,-677 231.4949,-677"/>
<polygon fill="#000000" stroke="#000000" points="231.5,-680.5001 241.5,-677 231.5,-673.5001 231.5,-680.5001"/>
</g>
<!-- AbstractExpression -->
<g id="node8" class="node">
<title>AbstractExpression</title>
<ellipse fill="none" stroke="#7f7f7f" cx="321.5" cy="-514" rx="86.8146" ry="18"/>
<text text-anchor="middle" x="321.5" y="-509.8" font-family="Times,serif" font-size="14.00" fill="#7f7f7f">AbstractExpression</text>
</g>
<!-- pgAttribute&#45;&gt;AbstractExpression -->
<g id="edge13" class="edge">
<title>pgAttribute:adbin-&gt;AbstractExpression</title>
<path fill="none" stroke="#7f7f7f" d="M182.5,-611C220.1449,-611 202.4568,-565.0057 233,-543 239.3644,-538.4146 246.4951,-534.5256 253.873,-531.2338"/>
<polygon fill="#7f7f7f" stroke="#7f7f7f" points="255.379,-534.3994 263.3114,-527.3761 252.7305,-527.9197 255.379,-534.3994"/>
</g>
<!-- pgType&#45;&gt;pgNamespace -->
<g id="edge8" class="edge">
<title>pgType:typnamespace-&gt;pgNamespace:nspoid</title>
<path fill="none" stroke="#000000" d="M402.5,-633C473.6784,-633 395.4865,-490.6394 451.4944,-476.1809"/>
<polygon fill="#000000" stroke="#000000" points="452.1488,-479.6286 461.679,-475 451.3424,-472.6752 452.1488,-479.6286"/>
</g>
<!-- pgConstraint -->
<g id="node7" class="node">
<title>pgConstraint</title>
<polygon fill="none" stroke="#000000" points="26.5,-530 26.5,-552 187.5,-552 187.5,-530 26.5,-530"/>
<text text-anchor="start" x="68.8969" y="-537.4" font-family="Times,serif" font-weight="bold" font-size="14.00" fill="#000000">pg_constraint</text>
<polygon fill="none" stroke="#000000" points="26.5,-508 26.5,-530 113.5,-530 113.5,-508 26.5,-508"/>
<text text-anchor="start" x="61.0547" y="-514.4" font-family="Times,serif" font-size="14.00" fill="#000000">oid</text>
<polygon fill="none" stroke="#000000" points="113.5,-508 113.5,-530 187.5,-530 187.5,-508 113.5,-508"/>
<text text-anchor="start" x="120.5659" y="-514.4" font-family="Times,serif" font-size="14.00" fill="#000000">INTEGER</text>
<polygon fill="none" stroke="#000000" points="26.5,-486 26.5,-508 113.5,-508 113.5,-486 26.5,-486"/>
<text text-anchor="start" x="44.7328" y="-492.4" font-family="Times,serif" font-size="14.00" fill="#000000">conname</text>
<polygon fill="none" stroke="#000000" points="113.5,-486 113.5,-508 187.5,-508 187.5,-486 113.5,-486"/>
<text text-anchor="start" x="116.2819" y="-492.4" font-family="Times,serif" font-size="14.00" fill="#000000">VARCHAR</text>
<polygon fill="none" stroke="#000000" points="26.5,-464 26.5,-486 113.5,-486 113.5,-464 26.5,-464"/>
<text text-anchor="start" x="29.1886" y="-470.4" font-family="Times,serif" font-size="14.00" fill="#000000">connamespace</text>
<polygon fill="none" stroke="#000000" points="113.5,-464 113.5,-486 187.5,-486 187.5,-464 113.5,-464"/>
<text text-anchor="start" x="120.5659" y="-470.4" font-family="Times,serif" font-size="14.00" fill="#000000">INTEGER</text>
<polygon fill="none" stroke="#000000" points="26.5,-442 26.5,-464 113.5,-464 113.5,-442 26.5,-442"/>
<text text-anchor="start" x="47.8401" y="-448.4" font-family="Times,serif" font-size="14.00" fill="#000000">contype</text>
<polygon fill="none" stroke="#000000" points="113.5,-442 113.5,-464 187.5,-464 187.5,-442 113.5,-442"/>
<text text-anchor="start" x="131.0568" y="-448.4" font-family="Times,serif" font-size="14.00" fill="#000000">CHAR</text>
<polygon fill="none" stroke="#000000" points="26.5,-420 26.5,-442 113.5,-442 113.5,-420 26.5,-420"/>
<text text-anchor="start" x="31.5273" y="-426.4" font-family="Times,serif" font-size="14.00" fill="#000000">condeferrable</text>
<polygon fill="none" stroke="#000000" points="113.5,-420 113.5,-442 187.5,-442 187.5,-420 113.5,-420"/>
<text text-anchor="start" x="117.0659" y="-426.4" font-family="Times,serif" font-size="14.00" fill="#000000">BOOLEAN</text>
<polygon fill="none" stroke="#000000" points="26.5,-398 26.5,-420 113.5,-420 113.5,-398 26.5,-398"/>
<text text-anchor="start" x="36.5799" y="-404.4" font-family="Times,serif" font-size="14.00" fill="#000000">condeferred</text>
<polygon fill="none" stroke="#000000" points="113.5,-398 113.5,-420 187.5,-420 187.5,-398 113.5,-398"/>
<text text-anchor="start" x="117.0659" y="-404.4" font-family="Times,serif" font-size="14.00" fill="#000000">BOOLEAN</text>
<polygon fill="none" stroke="#000000" points="26.5,-376 26.5,-398 113.5,-398 113.5,-376 26.5,-376"/>
<text text-anchor="start" x="34.2349" y="-382.4" font-family="Times,serif" font-size="14.00" fill="#000000">convalidated</text>
<polygon fill="none" stroke="#000000" points="113.5,-376 113.5,-398 187.5,-398 187.5,-376 113.5,-376"/>
<text text-anchor="start" x="117.0659" y="-382.4" font-family="Times,serif" font-size="14.00" fill="#000000">BOOLEAN</text>
<polygon fill="none" stroke="#000000" points="26.5,-354 26.5,-376 113.5,-376 113.5,-354 26.5,-354"/>
<text text-anchor="start" x="47.0645" y="-360.4" font-family="Times,serif" font-size="14.00" fill="#000000">conrelid</text>
<polygon fill="none" stroke="#000000" points="113.5,-354 113.5,-376 187.5,-376 187.5,-354 113.5,-354"/>
<text text-anchor="start" x="120.5659" y="-360.4" font-family="Times,serif" font-size="14.00" fill="#000000">INTEGER</text>
<polygon fill="none" stroke="#000000" points="26.5,-332 26.5,-354 113.5,-354 113.5,-332 26.5,-332"/>
<text text-anchor="start" x="45.5021" y="-338.4" font-family="Times,serif" font-size="14.00" fill="#000000">conindid</text>
<polygon fill="none" stroke="#000000" points="113.5,-332 113.5,-354 187.5,-354 187.5,-332 113.5,-332"/>
<text text-anchor="start" x="120.5659" y="-338.4" font-family="Times,serif" font-size="14.00" fill="#000000">INTEGER</text>
<polygon fill="none" stroke="#000000" points="26.5,-310 26.5,-332 113.5,-332 113.5,-310 26.5,-310"/>
<text text-anchor="start" x="44.7342" y="-316.4" font-family="Times,serif" font-size="14.00" fill="#000000">confrelid</text>
<polygon fill="none" stroke="#000000" points="113.5,-310 113.5,-332 187.5,-332 187.5,-310 113.5,-310"/>
<text text-anchor="start" x="120.5659" y="-316.4" font-family="Times,serif" font-size="14.00" fill="#000000">INTEGER</text>
<polygon fill="none" stroke="#000000" points="26.5,-288 26.5,-310 113.5,-310 113.5,-288 26.5,-288"/>
<text text-anchor="start" x="50.9474" y="-294.4" font-family="Times,serif" font-size="14.00" fill="#000000">conbin</text>
<polygon fill="none" stroke="#000000" points="113.5,-288 113.5,-310 187.5,-310 187.5,-288 113.5,-288"/>
<text text-anchor="start" x="120.9509" y="-294.4" font-family="Times,serif" font-size="14.00" fill="#000000">POINTER</text>
<polygon fill="none" stroke="#000000" points="26.5,-266 26.5,-288 113.5,-288 113.5,-266 26.5,-266"/>
<text text-anchor="start" x="51.7328" y="-272.4" font-family="Times,serif" font-size="14.00" fill="#000000">consrc</text>
<polygon fill="none" stroke="#000000" points="113.5,-266 113.5,-288 187.5,-288 187.5,-266 113.5,-266"/>
<text text-anchor="start" x="116.2819" y="-272.4" font-family="Times,serif" font-size="14.00" fill="#000000">VARCHAR</text>
</g>
<!-- pgConstraint&#45;&gt;pgClass -->
<g id="edge2" class="edge">
<title>pgConstraint:conindex-&gt;pgClass:reloid</title>
<path fill="none" stroke="#000000" d="M187.5,-343C208.5,-343 216.2109,-343 233.0581,-343"/>
<polygon fill="#000000" stroke="#000000" points="233.5,-346.5001 243.5,-343 233.5,-339.5001 233.5,-346.5001"/>
</g>
<!-- pgConstraint&#45;&gt;pgClass -->
<g id="edge3" class="edge">
<title>pgConstraint:contable-&gt;pgClass:reloid</title>
<path fill="none" stroke="#000000" d="M187.5,-365C210.4802,-365 215.572,-348.7524 233.5211,-344.1828"/>
<polygon fill="#000000" stroke="#000000" points="233.9815,-347.6528 243.5,-343 233.1575,-340.7015 233.9815,-347.6528"/>
</g>
<!-- pgConstraint&#45;&gt;pgClass -->
<g id="edge4" class="edge">
<title>pgConstraint:confkey-&gt;pgClass:reloid</title>
<path fill="none" stroke="#000000" d="M187.5,-321C210.4802,-321 215.572,-337.2476 233.5211,-341.8172"/>
<polygon fill="#000000" stroke="#000000" points="233.1575,-345.2985 243.5,-343 233.9815,-338.3472 233.1575,-345.2985"/>
</g>
<!-- pgConstraint&#45;&gt;pgNamespace -->
<g id="edge1" class="edge">
<title>pgConstraint:connamespace-&gt;pgNamespace:nspoid</title>
<path fill="none" stroke="#000000" d="M187.5,-475C305.9063,-475 338.0229,-475 451.5417,-475"/>
<polygon fill="#000000" stroke="#000000" points="451.6791,-478.5001 461.679,-475 451.679,-471.5001 451.6791,-478.5001"/>
</g>
<!-- pgConstraint&#45;&gt;AbstractExpression -->
<g id="edge12" class="edge">
<title>pgConstraint:conbin-&gt;AbstractExpression</title>
<path fill="none" stroke="#7f7f7f" d="M187.5,-299C270.4473,-299 177.9861,-417.9217 233,-480 238.7278,-486.4633 245.8253,-491.7054 253.4905,-495.9555"/>
<polygon fill="#7f7f7f" stroke="#7f7f7f" points="252.1852,-499.2143 262.7014,-500.5027 255.2839,-492.9375 252.1852,-499.2143"/>
</g>
</g>
</svg>
