<?xml version="1.0" encoding="UTF-8" standalone="no"?>
<!-- Generator: Adobe Illustrator 22.1.0, SVG Export Plug-In . SVG Version: 6.00 Build 0)  -->

<svg
   xmlns:dc="http://purl.org/dc/elements/1.1/"
   xmlns:cc="http://creativecommons.org/ns#"
   xmlns:rdf="http://www.w3.org/1999/02/22-rdf-syntax-ns#"
   xmlns:svg="http://www.w3.org/2000/svg"
   xmlns="http://www.w3.org/2000/svg"
   xmlns:sodipodi="http://sodipodi.sourceforge.net/DTD/sodipodi-0.dtd"
   xmlns:inkscape="http://www.inkscape.org/namespaces/inkscape"
   version="1.1"
   id="Layer_1"
   x="0px"
   y="0px"
   viewBox="0 0 2044.7334 713.96582"
   xml:space="preserve"
   sodipodi:docname="noisepage-horizontal.svg"
   inkscape:version="0.92.3 (2405546, 2018-03-11)"
   width="2044.7334"
   height="713.96582"><metadata
   id="metadata242"><rdf:RDF><cc:Work
       rdf:about=""><dc:format>image/svg+xml</dc:format><dc:type
         rdf:resource="http://purl.org/dc/dcmitype/StillImage" /><dc:title></dc:title></cc:Work></rdf:RDF></metadata><defs
   id="defs240">








	</defs><sodipodi:namedview
   pagecolor="#ffffff"
   bordercolor="#666666"
   borderopacity="1"
   objecttolerance="10"
   gridtolerance="10"
   guidetolerance="10"
   inkscape:pageopacity="0"
   inkscape:pageshadow="2"
   inkscape:window-width="2478"
   inkscape:window-height="1409"
   id="namedview238"
   showgrid="false"
   inkscape:zoom="0.59926028"
   inkscape:cx="1487.988"
   inkscape:cy="-18.527516"
   inkscape:window-x="2560"
   inkscape:window-y="0"
   inkscape:window-maximized="1"
   inkscape:current-layer="Layer_1"
   fit-margin-top="0"
   fit-margin-left="0"
   fit-margin-right="0"
   fit-margin-bottom="0"
   showguides="true"
   inkscape:guide-bbox="true"><sodipodi:guide
     position="380.46907,0.034951363"
     orientation="0,1"
     id="guide837"
     inkscape:locked="false" /></sodipodi:namedview>
<style
   type="text/css"
   id="style209">
	.st0{fill:#121B26;}
	.st1{fill:#0075FF;}
</style>
<g
   id="g221"
   transform="matrix(1.1954142,0,0,1.1920702,335.72156,-923.97361)"
   style="stroke-width:0.83770263">
		<path
   style="fill:#121b26;stroke-width:0.83770263"
   inkscape:connector-curvature="0"
   id="path211"
   d="m 692.3,1035.2 v -96.6 c 0,-28.1 -15.3,-49.4 -44.5,-49.4 -28.1,0 -47.2,19.8 -47.2,47.9 v 98.1 H 555.3 V 850.3 h 43.8 v 21.3 c 18.7,-18.3 37.4,-24 60.6,-24 43.4,0 78.2,32.6 78.2,90.6 v 97 z"
   class="st0" />
		<path
   style="fill:#121b26;stroke-width:0.83770263"
   inkscape:connector-curvature="0"
   id="path213"
   d="m 956.1,943.1 c 0,53.2 -36.3,96.2 -96.2,96.2 -59.9,0 -95.8,-43.1 -95.8,-96.2 0,-52.8 36.7,-96.2 95.5,-96.2 58.8,0 96.5,43.4 96.5,96.2 z m -146.3,0 c 0,28.1 16.8,54.3 50.2,54.3 33.3,0 50.2,-26.2 50.2,-54.3 0,-27.7 -19.5,-54.7 -50.2,-54.7 -33,0.1 -50.2,27 -50.2,54.7 z"
   class="st0" />
		<path
   style="fill:#121b26;stroke-width:0.83770263"
   inkscape:connector-curvature="0"
   id="path215"
   d="m 1029.2,775.1 v 43 h -45.3 v -43 z m -45,74.8 v 185.3 h 45.7 V 849.9 Z"
   class="st0" />
		<path
   style="fill:#121b26;stroke-width:0.83770263"
   inkscape:connector-curvature="0"
   id="path217"
   d="m 1186.5,899.7 c -13.1,-12.4 -28.1,-16.5 -45.7,-16.5 -21.7,0 -33.7,6.7 -33.7,18.3 0,12 10.9,18.7 34.4,20.2 34.8,2.2 79,10.1 79,59.1 0,32.6 -26.6,60.6 -79.4,60.6 -29.2,0 -58.4,-4.9 -85.4,-32.9 l 22.5,-32.6 c 13.1,14.6 43,25.5 63.6,25.8 17.2,0.4 33.3,-8.6 33.3,-22.1 0,-12.7 -10.5,-18 -36.7,-19.5 -34.8,-2.6 -76.4,-15.3 -76.4,-57.3 0,-42.7 44.2,-57.6 77.9,-57.6 28.8,0 50.5,5.6 71.9,24.3 z"
   class="st0" />
		<path
   style="fill:#121b26;stroke-width:0.83770263"
   inkscape:connector-curvature="0"
   id="path219"
   d="m 1284.8,959.2 c 3,22.8 22.8,39.3 55,39.3 16.8,0 38.9,-6.4 49.4,-17.2 l 29.2,28.8 c -19.5,20.2 -51.3,29.9 -79.4,29.9 -63.6,0 -101.5,-39.3 -101.5,-98.5 0,-56.1 38.2,-96.6 98.1,-96.6 61.8,0 100.3,38.2 93.2,114.2 h -144 z m 100.3,-37.8 c -3,-24 -21.7,-35.9 -47.9,-35.9 -24.7,0 -44.9,12 -51.7,35.9 z"
   class="st0" />
	</g><path
   class="st0"
   d="M 999.53507,713.93084 V 401.96607 h 54.63043 v 30.39779 c 16.9749,-24.55664 46.5016,-35.28527 71.6053,-35.28527 68.0191,0 113.2057,50.42457 113.2057,115.15398 0,64.25258 -40.7636,115.15398 -111.4126,115.15398 -23.3106,0 -57.7385,-7.15242 -73.3984,-31.23224 V 713.93084 Z M 1184.3461,512.23257 c 0,-34.33162 -23.3106,-62.46448 -62.6397,-62.46448 -39.3291,0 -62.6397,28.13286 -62.6397,62.46448 0,34.33162 25.4623,62.46448 62.6397,62.46448 37.1774,0 62.6397,-28.13286 62.6397,-62.46448 z"
   id="path223"
   inkscape:connector-curvature="0"
   style="fill:#121b26;stroke-width:1" /><path
   class="st0"
   d="m 1447.6958,401.96607 h 54.1523 v 219.93696 h -54.1523 v -32.1859 c -12.5518,25.86792 -46.9797,38.38466 -71.6053,38.86149 -65.3891,0.47683 -113.6839,-39.69594 -113.6839,-116.94209 0,-75.81566 50.5661,-115.63081 114.9989,-115.15398 29.5267,0 57.7385,13.82801 70.2903,35.6429 z m -130.6587,109.78967 c 0,41.96087 29.0485,66.87514 65.3891,66.87514 85.9503,0 85.9503,-133.39266 0,-133.39266 -36.3406,0 -65.3891,24.55665 -65.3891,66.51752 z"
   id="path225"
   inkscape:connector-curvature="0"
   style="fill:#121b26;stroke-width:1" /><path
   class="st0"
   d="m 1703.5145,590.31317 c -7.1725,14.78167 -36.6992,26.82157 -55.9454,26.82157 -68.8559,0 -111.8908,-41.96087 -111.8908,-110.62411 0,-68.66324 50.0879,-111.57777 111.8908,-111.57777 17.4531,0 40.7636,6.67559 55.9454,16.9274 v -16.9274 h 54.6304 v 46.37153 65.20624 82.13364 c 0,78.55742 -51.0442,118.25336 -110.5758,118.25336 -58.2167,0 -102.9252,-31.70907 -110.9344,-81.65681 l 53.1959,-10.2518 c 3.5862,25.03347 28.2118,41.00721 57.2603,41.00721 27.2555,0 55.9454,-20.98043 55.9454,-65.56386 h 0.4782 z m -113.6839,-83.92175 c 0,38.38466 25.9405,61.1532 57.7385,61.1532 31.3199,0 57.2603,-23.24536 57.2603,-61.1532 0,-37.90783 -25.9404,-61.98765 -57.2603,-61.98765 -31.798,0 -57.7385,23.60299 -57.7385,61.98765 z"
   id="path227"
   inkscape:connector-curvature="0"
   style="fill:#121b26;stroke-width:1" /><path
   class="st0"
   d="m 1843.0193,531.4249 c 3.5863,27.1792 27.2555,46.84836 65.7478,46.84836 20.083,0 46.5016,-7.62925 59.0535,-20.50361 l 34.9061,34.33162 c -23.3106,24.07982 -61.3248,35.6429 -94.9159,35.6429 -76.0284,0 -121.3346,-46.84836 -121.3346,-117.41892 0,-66.87513 45.6649,-115.15398 117.2702,-115.15398 73.8766,0 119.9,45.53708 111.4126,136.13442 h -172.1397 z m 119.9001,-45.06026 c -3.5863,-28.60968 -25.9405,-42.79532 -57.2604,-42.79532 -29.5267,0 -53.6741,14.30485 -61.8029,42.79532 z"
   id="path229"
   inkscape:connector-curvature="0"
   style="fill:#121b26;stroke-width:1" /><path
   style="fill:#c4122e;fill-opacity:1"
   inkscape:connector-curvature="0"
   id="path233"
   d="m 874.4,264.76583 c 0,-135.3 -109.7,-245.099997 -245.1,-245.099997 0,0 0,0 0,0 H 367.5 c -14.6,0 -27.6,8.2 -33.8,21.5 -6.2,13.2 -4.3,28.5 5.1,39.7 L 460.3,227.36583 h 169.1 c 20.6,0 37.3,16.9 37.3,37.6 0,20.6 -16.7,37.3 -37.3,37.3 H 442.6 c -11.1,0 -21.6,-4.9 -28.7,-13.4 L 200.9,33.065833 c -7.1,-8.5 -17.6,-13.4 -28.7,-13.4 H 37.3 c -20.6,0 -37.3,16.7 -37.3,37.3 V 676.66583 c 0,20.6 16.7,37.3 37.3,37.3 h 286.5 c 14.7,0 27.7,-8.3 33.9,-21.6 6.2,-13.3 4.1,-28.6 -5.4,-39.8 l -193.4,-228.2 c -6.5,-7.6 -9.6,-17.3 -8.7,-27.3 0.8,-10 5.5,-19 13.2,-25.4 6.7,-5.6 15.2,-8.7 24,-8.7 11,0 21.5,4.8 28.6,13.3 l 273.5,324.4 c 7.1,8.4 17.5,13.3 28.5,13.3 h 97.4 c 20.6,0 37.3,-16.7 37.3,-37.3 v -167.9 c 124.4,-11.7 221.7,-116.5 221.7,-244 z"
   class="st1" />
</svg>
